<svg version="1.1" id="Layer_1" xmlns="http://www.w3.org/2000/svg" xmlns:xlink="http://www.w3.org/1999/xlink" x="0px" y="0px"
	 width="100%" viewBox="200 8 506 545" enable-background="new 200 8 506 545" xml:space="preserve">
<path fill="#000000" opacity="1.000000" stroke="none" 
	d="
M491.999817,546.335449 
	C441.507477,546.324402 391.515167,546.315979 341.522858,546.281555 
	C341.267456,546.281433 341.012299,545.913757 340.535919,545.547852 
	C340.919830,543.177063 343.157959,543.338379 344.674255,543.001709 
	C358.961334,539.829041 373.064453,535.755737 387.631042,533.943604 
	C390.398926,533.599243 392.605835,532.726196 393.170227,529.852722 
	C395.725403,516.844116 404.266693,507.608917 413.212555,498.883057 
	C422.964844,489.370636 432.582977,479.583344 444.912079,473.142426 
	C449.119904,470.944153 453.377319,469.100128 458.125427,468.986664 
	C463.662750,468.854279 467.991730,466.537933 471.778778,462.675415 
	C476.906219,457.445740 481.900970,452.060059 487.995636,447.874512 
	C491.738068,445.304382 495.724365,443.232819 500.094727,442.037445 
	C503.099457,441.215576 504.475952,439.484650 504.676117,436.370361 
	C505.398529,425.131775 510.820251,416.535370 519.845520,410.046967 
	C520.386230,409.658234 521.091003,409.363281 521.422485,408.837463 
	C528.913086,396.955505 538.303711,385.991241 539.642334,371.122772 
	C539.829590,369.043304 538.929443,367.974854 537.085876,367.487854 
	C534.675720,366.851196 532.288025,366.082275 529.720276,366.489563 
	C521.772522,367.750275 514.193970,365.919647 506.606537,363.837158 
	C498.260529,361.546509 489.873383,359.391968 481.456177,357.378723 
	C474.048248,355.606812 467.388824,352.445526 461.220215,347.979309 
	C455.786194,344.044983 451.329071,339.540222 449.929138,332.724609 
	C449.232910,329.335083 447.366425,327.452057 444.061218,326.049774 
	C412.380707,312.608856 387.108765,291.305817 367.546570,263.085083 
	C366.457672,261.514252 365.813446,259.387299 363.531128,258.904785 
	C361.639038,259.688568 361.612427,261.495667 361.176270,263.052368 
	C355.425018,283.579193 350.919983,304.404327 346.185486,325.178406 
	C338.224915,360.107880 330.052063,394.995575 313.780212,427.287689 
	C302.414703,449.842987 287.483002,469.335785 265.561676,482.733124 
	C260.660980,485.728241 252.847824,483.415894 250.541138,478.291656 
	C249.379639,475.711426 251.597397,475.091339 252.995728,474.179230 
	C258.688446,470.465790 264.537567,466.971680 269.072754,461.979004 
	C268.810516,460.033783 267.541595,459.140717 266.377808,458.244415 
	C260.042877,453.365082 253.659576,448.548523 247.321396,443.673340 
	C244.282578,441.335968 241.711197,441.044830 238.585144,444.012146 
	C235.227371,447.199432 231.138321,449.604126 227.468536,452.478210 
	C223.558624,455.540283 219.835236,456.238708 215.957550,452.411743 
	C214.236435,450.713074 211.340698,450.350891 210.422180,447.814728 
	C210.572830,446.296204 211.688705,445.778107 212.663132,445.180420 
	C237.415817,429.998688 254.098282,408.129578 265.775452,381.897369 
	C279.001556,352.185455 286.778259,320.890686 293.723358,289.300446 
	C300.158478,260.029755 306.664612,230.767731 316.489868,202.378159 
	C323.270599,182.785614 331.632721,163.951569 343.082611,146.591415 
	C344.375488,144.631180 345.436737,142.661270 346.019440,140.327164 
	C355.698669,101.556358 377.168457,70.586105 409.346039,47.323734 
	C437.406219,27.037989 468.993469,16.251326 503.784271,14.560963 
	C531.584961,13.210224 558.257446,17.478212 583.711121,28.590265 
	C625.030640,46.628746 655.369385,75.924179 673.123474,117.638092 
	C684.904907,145.319046 688.350891,174.184082 682.867798,203.736420 
	C677.349792,233.476669 664.631409,259.865936 644.267578,282.576904 
	C632.773499,295.395782 619.545288,305.793304 604.853699,314.527557 
	C603.462952,315.354401 602.112061,316.248505 599.482056,317.905670 
	C606.782166,317.905670 612.706421,318.286896 618.553772,317.780487 
	C622.936157,317.400940 625.660461,313.923492 628.293274,310.565063 
	C638.466736,297.587524 654.828613,296.166656 666.845154,307.091980 
	C676.303284,315.691254 676.690735,329.126160 667.591370,338.043060 
	C665.605225,339.989319 664.315674,342.070679 663.596863,344.750610 
	C662.916321,347.287903 662.093872,349.741638 658.364319,349.628906 
	C655.761108,349.550201 654.886414,352.446350 653.575867,354.295563 
	C647.933533,362.257355 644.892334,362.720612 637.478455,356.615662 
	C633.229004,353.116455 631.589905,353.521545 629.383789,358.604980 
	C627.595947,362.724548 627.014893,367.252380 624.773682,371.247070 
	C619.029785,381.484833 609.401001,387.627899 600.358826,394.254211 
	C595.361267,397.916534 590.292419,401.085144 588.295654,408.274658 
	C600.715393,405.007904 612.771057,404.208984 624.930908,404.697021 
	C631.634094,404.966064 638.085022,406.291107 644.437866,408.544373 
	C658.858765,413.659302 662.381348,424.281891 659.533508,437.988861 
	C658.238770,444.220642 655.574036,450.036957 652.715881,455.655548 
	C649.429443,462.115967 648.555115,468.949921 648.313599,475.956818 
	C648.124634,481.437744 646.560364,486.334320 643.695251,491.029083 
	C638.832397,498.997040 634.521667,507.278534 632.054626,516.359131 
	C630.408142,522.419250 632.117554,525.903198 638.052734,527.228394 
	C643.518494,528.448730 648.612000,530.104187 653.046570,533.625488 
	C653.888062,534.293701 655.195435,534.513733 656.324280,534.660522 
	C668.900452,536.296021 681.094971,539.683167 693.369568,542.695923 
	C695.083191,543.116516 697.041809,543.168640 699.151917,546.337219 
	C629.608704,546.337219 561.054260,546.337219 491.999817,546.335449 
M429.434387,529.561890 
	C449.301727,527.237366 469.295563,526.852905 489.243530,526.066101 
	C525.391296,524.640320 561.514954,526.258606 597.606445,528.321350 
	C600.462524,528.484619 601.938721,527.511230 603.279480,525.390686 
	C607.332825,518.979736 609.604614,512.231628 607.795471,504.528290 
	C605.603088,495.193024 607.553894,486.392059 611.492371,477.882660 
	C613.469177,473.611511 614.037109,468.839630 612.433533,464.719971 
	C610.860413,460.678528 611.293884,458.078247 614.853760,455.801788 
	C613.428040,454.892029 612.521240,455.506561 611.605835,455.809357 
	C593.544983,461.783600 575.440002,463.090149 557.348145,456.061676 
	C554.294861,454.875549 553.158630,456.616364 551.753662,458.586151 
	C542.276917,471.872467 530.019897,480.875275 513.494263,483.210785 
	C512.090637,483.409149 510.968689,484.015625 510.032776,485.014099 
	C505.489502,489.861145 499.598114,492.066284 493.312317,493.333282 
	C485.378601,494.932495 477.349182,496.039642 470.537201,501.077545 
	C468.883392,502.300659 466.551727,502.820587 464.449036,503.180511 
	C459.535309,504.021515 454.516174,504.299438 449.640472,505.297638 
	C441.991608,506.863586 434.290558,508.402161 427.816895,513.325867 
	C424.062134,516.181641 423.575134,520.015137 424.488525,524.080505 
	C424.996338,526.340637 424.392761,529.941650 429.434387,529.561890 
M552.694031,87.014610 
	C552.736633,85.515640 552.785400,84.016815 552.820801,82.517677 
	C553.417175,57.201813 531.170837,37.608658 503.228119,43.812733 
	C480.388062,48.883873 464.180695,76.342903 479.060364,101.640953 
	C486.727722,114.676773 503.492767,122.598419 518.331360,120.290024 
	C536.097961,117.526131 548.630920,105.693985 552.694031,87.014610 
M420.793365,273.668732 
	C422.051758,274.998566 423.244476,276.398621 424.578583,277.647583 
	C440.594940,292.641144 463.432770,292.402252 480.054535,277.091980 
	C494.764679,263.542450 495.839386,241.380478 482.592468,224.755463 
	C466.662292,204.762878 432.939270,206.600922 419.301392,228.212418 
	C409.714447,243.404556 410.478912,258.357727 420.793365,273.668732 
M582.253662,287.756744 
	C597.296204,284.589264 607.644531,275.317627 612.057129,261.119812 
	C616.748596,246.024673 612.957153,231.910400 601.045349,220.955231 
	C589.551086,210.384048 575.567261,208.607544 561.284912,213.026627 
	C541.272644,219.218582 530.713989,240.077316 536.156128,260.544586 
	C541.155457,279.346466 561.709534,291.756409 582.253662,287.756744 
M395.390015,182.162094 
	C409.682800,191.763092 424.454285,193.166061 439.462555,184.127106 
	C456.224792,174.031799 463.034821,155.730057 455.904694,137.107986 
	C450.074646,121.881317 438.256805,113.677429 422.030090,112.396957 
	C407.307220,111.235168 395.301178,116.799583 386.462708,128.613892 
	C376.058838,142.520676 376.551208,168.403549 395.390015,182.162094 
M631.352783,181.895569 
	C648.307617,168.020782 652.312500,146.976227 640.334290,129.324295 
	C633.795471,119.688179 624.271240,114.033119 612.050476,112.682228 
	C597.814636,111.108582 581.318665,117.851646 574.370300,129.430206 
	C565.557739,144.115234 566.155334,161.379028 575.507874,174.031708 
	C586.927368,189.480728 611.700562,196.299606 631.352783,181.895569 
M302.903900,341.561920 
	C308.652252,344.548157 314.396057,347.543243 320.150391,350.517883 
	C325.117279,353.085480 325.824646,352.897430 327.191010,347.268250 
	C330.362732,334.201263 333.285706,321.074097 336.378723,307.987671 
	C337.241364,304.337891 336.117065,302.011444 332.648926,300.404907 
	C326.020630,297.334442 319.481018,294.065704 312.972168,290.746704 
	C309.093506,288.768951 307.307404,289.914948 306.384216,294.070007 
	C303.613831,306.538940 300.962860,319.055328 297.518799,331.344025 
	C295.996368,336.776093 297.358032,339.507202 302.903900,341.561920 
M296.044220,347.059235 
	C293.610413,346.437653 293.355347,348.303558 292.812469,349.870087 
	C288.564392,362.128540 284.919434,374.614044 279.221985,386.329193 
	C277.580780,389.703827 278.610718,391.853363 281.750946,393.713654 
	C288.478149,397.698944 295.433990,401.359680 301.571930,406.257141 
	C305.327820,409.254028 307.338135,407.992249 308.994873,404.013733 
	C314.249512,391.395111 318.394562,378.403351 322.365234,365.344482 
	C323.239746,362.468323 322.382172,360.456909 319.792053,359.119934 
	C312.102600,355.150787 304.401520,351.204071 296.044220,347.059235 
M340.227661,289.640076 
	C343.536377,276.748779 346.838898,263.855896 350.158142,250.967316 
	C350.967957,247.822784 351.905884,244.779282 347.841888,242.934219 
	C340.722473,239.702026 333.681396,236.297379 326.604889,232.970551 
	C323.832397,231.667130 321.852325,232.065155 320.880310,235.349869 
	C316.818359,249.076187 313.584229,263.008148 310.450745,276.965027 
	C309.866608,279.566864 310.840698,281.418579 313.373322,282.584351 
	C320.631042,285.925110 327.864960,289.321045 335.047943,292.819092 
	C337.942657,294.228851 339.444489,293.418335 340.227661,289.640076 
M285.129669,404.405701 
	C282.595093,402.818298 280.090698,401.179810 277.516815,399.658905 
	C275.272705,398.332886 273.415314,398.704987 272.158722,401.165375 
	C266.538361,412.169983 259.709534,422.368134 251.644333,431.730438 
	C249.314270,434.435272 249.511017,436.649506 252.501541,438.772644 
	C258.865540,443.290771 265.278564,447.759186 271.400360,452.591522 
	C274.852356,455.316376 277.212585,454.527069 279.886780,451.671631 
	C288.487854,442.487579 294.963959,431.884125 300.985962,420.930542 
	C302.963135,417.334259 302.006256,415.032410 298.798828,413.053284 
	C294.414917,410.348236 290.080048,407.563721 285.129669,404.405701 
M332.401184,198.859909 
	C330.284973,205.172928 328.304962,211.536148 326.003357,217.780838 
	C324.535095,221.764526 325.846893,224.175690 329.462952,225.785751 
	C333.112579,227.410767 336.719330,229.138245 340.410217,230.662552 
	C344.154602,232.208939 347.439240,234.931961 352.752808,235.572937 
	C346.276917,217.654144 342.372589,199.844757 340.872620,181.441696 
	C336.688202,186.561539 335.131104,192.559021 332.401184,198.859909 
M499.224518,177.947372 
	C499.822357,181.618607 502.051727,184.250031 504.827393,186.454575 
	C510.229126,190.744858 519.006653,189.771454 523.735535,184.435638 
	C528.950867,178.550919 528.912903,171.742233 523.633545,166.135757 
	C519.476318,161.720932 513.621704,160.083420 508.745361,161.971573 
	C502.245880,164.488220 499.011047,169.575394 499.224518,177.947372 
M483.472504,203.186127 
	C484.160278,204.691605 484.641632,206.341736 485.575653,207.674652 
	C488.091187,211.264465 492.942780,212.429749 497.201599,210.680710 
	C501.058563,209.096695 503.363037,204.690033 502.548462,200.456314 
	C501.729736,196.200928 498.290649,193.378296 493.638153,193.143250 
	C487.925842,192.854660 485.224274,195.319092 483.472504,203.186127 
M482.852570,155.754242 
	C480.383514,154.977493 478.232147,156.051147 476.200562,157.127701 
	C471.633972,159.547562 469.987823,164.739365 472.250153,169.041290 
	C474.697479,173.695007 479.760132,175.403824 484.464172,173.376221 
	C488.253143,171.743042 490.432495,168.816986 490.436737,164.926682 
	C490.441589,160.492279 487.515411,157.696289 482.852570,155.754242 
M554.836548,162.576508 
	C552.853760,158.328400 549.692932,155.259369 544.865479,155.808395 
	C540.498535,156.305038 537.138123,158.985428 536.293945,163.679092 
	C535.697327,166.996613 536.567566,169.916061 539.526245,172.002228 
	C542.872498,174.361679 546.306335,175.536758 550.163940,173.271927 
	C553.999084,171.020264 555.644592,167.675125 554.836548,162.576508 
M537.273499,193.949768 
	C535.813904,193.707169 534.352051,193.245712 532.895203,193.261078 
	C527.532593,193.317642 523.418274,197.687302 523.617920,202.939117 
	C523.794373,207.580627 528.556824,211.815247 533.552246,211.493179 
	C537.739441,211.223221 540.885315,208.958801 542.204346,205.023941 
	C543.724976,200.487671 541.644836,196.981522 537.273499,193.949768 
M513.416443,151.613556 
	C518.172119,150.993851 521.521606,148.548904 522.567810,143.783295 
	C523.394165,140.019302 521.987976,136.917252 518.597900,134.877914 
	C514.972717,132.697174 511.256439,132.720688 507.776520,134.996735 
	C504.816681,136.932709 502.882355,140.001999 503.672241,143.465240 
	C504.698700,147.965851 507.810944,150.944794 513.416443,151.613556 
M496.678162,339.304504 
	C491.706482,339.207428 486.792816,337.050690 481.488068,338.387512 
	C484.414886,343.606812 492.911041,344.558228 499.625397,340.873749 
	C499.468384,339.512360 498.313629,339.627533 496.678162,339.304504 
M542.701782,339.576813 
	C543.335266,338.943298 544.717529,338.925537 544.335938,337.074432 
	C539.287109,337.653778 534.176758,337.815125 528.852539,339.712708 
	C533.808411,344.028625 537.988953,343.021027 542.701782,339.576813 
M565.068481,331.744537 
	C563.221863,332.436584 561.375305,333.128601 558.690735,334.134705 
	C569.792664,336.379791 569.792664,336.379791 570.494019,331.143890 
	C568.832764,330.195190 567.307739,331.232605 565.068481,331.744537 
M298.116241,439.187500 
	C299.453125,440.459625 300.722015,440.648926 301.383942,438.639313 
	C301.885071,437.117859 300.854767,435.942047 299.521759,435.833160 
	C297.569061,435.673645 297.115570,436.988861 298.116241,439.187500 
M292.794891,449.302063 
	C294.817200,448.922363 295.683197,447.819214 294.595276,445.909027 
	C294.125946,445.084961 293.074738,444.442047 292.119751,445.173859 
	C290.437988,446.462708 290.558044,447.851532 292.794891,449.302063 
M327.272644,376.205780 
	C329.692841,373.867188 328.863892,372.588013 326.106171,371.512939 
	C324.945221,373.607391 324.742218,375.073700 327.272644,376.205780 
M314.324310,408.846954 
	C316.395752,409.980042 317.049408,408.723816 317.068970,407.018463 
	C317.084290,405.684448 315.917969,404.783325 314.770416,405.040405 
	C312.705444,405.502869 313.119934,407.038818 314.324310,408.846954 
M305.833984,426.006805 
	C303.272430,425.748962 303.093414,427.292358 303.727966,429.076569 
	C304.072540,430.045380 305.160217,430.592224 306.156860,429.923431 
	C307.701782,428.886688 307.808929,427.591125 305.833984,426.006805 
M288.203674,455.048096 
	C287.142242,453.697662 285.951324,452.917694 284.698273,454.736847 
	C283.879639,455.925262 284.517212,457.118408 285.572296,457.660339 
	C287.617615,458.710907 288.066010,457.127258 288.203674,455.048096 
M310.956635,253.475906 
	C311.813843,251.469269 311.024231,250.315796 308.992065,250.084488 
	C308.069489,249.979492 307.544830,250.853012 307.519745,251.695175 
	C307.455170,253.860565 308.550934,254.591797 310.956635,253.475906 
M258.369690,477.192688 
	C259.864685,480.145233 259.864685,480.145233 262.928619,477.800842 
	C261.886993,476.059113 260.479279,475.936005 258.369690,477.192688 
z"/>
</svg>