<?xml version="1.0" encoding="UTF-8"?>
<svg xmlns="http://www.w3.org/2000/svg" viewBox="-150 -110 1310 1310">
  <defs>
    <linearGradient id="grad" x1="0%" y1="0%" x2="100%" y2="100%">
      <stop offset="0%" stop-color="#00B7FF"/>
      <stop offset="100%" stop-color="#2A82FE"/>
    </linearGradient>
    <mask id="logo-mask">
      <path fill="white" transform="translate(616.57958984375,11.93798828125)" d="M0 0 C74.8151186 -1.59237104 150.94168656 18.39814553 212.42041016 62.06201172 C213.56594548 62.85931506 214.7117972 63.65616395 215.85791016 64.45263672 C223.32227735 69.67496695 230.45636247 75.18276701 237.42041016 81.06201172 C238.44005859 81.89603516 239.45970703 82.73005859 240.51025391 83.58935547 C255.07405264 95.62539207 268.91104009 109.05833575 280.42041016 124.06201172 C281.36347623 125.21985896 282.31038571 126.37458195 283.26025391 127.52685547 C290.23564916 136.02187455 296.5260556 144.78737296 302.42041016 154.06201172 C303.09587891 155.11775391 303.77134766 156.17349609 304.46728516 157.26123047 C306.49964157 160.50080659 308.47946492 163.76719171 310.42041016 167.06201172 C310.79633301 167.69880859 311.17225586 168.33560547 311.55957031 168.99169922 C339.17353917 216.19429192 354.97499163 269.83981617 354.73291016 324.62451172 C354.73017593 325.92403778 354.73017593 325.92403778 354.72738647 327.24981689 C354.67539955 342.02257126 353.82166179 356.46542701 351.42041016 371.06201172 C351.17097656 372.62435547 351.17097656 372.62435547 350.91650391 374.21826172 C342.81423269 423.67212452 323.64213774 471.91691397 293.42041016 512.06201172 C293.02144531 512.59842285 292.62248047 513.13483398 292.21142578 513.6875 C285.66344322 522.47877288 278.64029006 530.81787552 271.42041016 539.06201172 C270.60185547 540.00560547 269.78330078 540.94919922 268.93994141 541.92138672 C265.00451054 546.39192781 260.98497146 550.46726309 256.42822266 554.30029297 C254.25988119 556.20286496 252.29214473 558.23054487 250.29541016 560.31201172 C245.01151618 565.65945769 239.15555583 570.15220584 233.19042969 574.70214844 C231.52241581 575.98364324 229.87313657 577.28524546 228.22900391 578.59716797 C220.32371837 584.84026581 212.05292862 590.33550656 203.54248047 595.71728516 C200.13567699 597.87612933 196.74805986 600.06465118 193.35791016 602.24951172 C191.37920412 603.52106408 189.39981796 604.79155188 187.42041016 606.06201172 C198.24120506 609.66894335 217.78678268 608.87606402 228.36572266 604.20263672 C233.31670803 601.13879823 236.65862531 596.27222202 240.23681641 591.77685547 C248.64733933 581.32012304 259.26518942 574.71119974 272.29541016 571.31201172 C289.76407276 569.91451871 304.28257874 573.87516802 317.85791016 585.37451172 C327.00769421 594.1083965 331.80566191 605.1481621 332.67041016 617.68701172 C332.42880142 630.34730949 327.00865681 639.98465657 318.92041016 649.31201172 C314.44421047 654.56048706 312.24276781 659.66388055 310.00244141 666.09326172 C308.0007367 669.8495471 306.35045955 670.56485004 302.42041016 672.06201172 C301.39689453 672.33658203 300.37337891 672.61115234 299.31884766 672.89404297 C295.52135954 674.42429761 294.31909873 676.38124073 292.04541016 679.74951172 C288.04123084 685.38652897 283.73195289 690.90624035 277.42041016 694.06201172 C268.3318141 694.06201172 262.73077969 689.93019669 255.56494141 684.71044922 C252.38047839 682.43466331 250.35840878 681.59871776 246.42041016 682.06201172 C245.01283372 685.53092047 243.67412228 689.02203534 242.36645508 692.52978516 C241.84767567 693.91965312 241.32554335 695.30827295 240.80053711 696.69580078 C239.56043617 699.97656946 238.35553839 703.25406628 237.23291016 706.57763672 C234.3178022 714.95857209 230.06960326 721.25551864 224.42041016 728.06201172 C223.84291016 728.79162109 223.26541016 729.52123047 222.67041016 730.27294922 C217.94413424 736.02173675 212.27877903 740.51981079 206.42041016 745.06201172 C205.46352295 745.80741211 205.46352295 745.80741211 204.48730469 746.56787109 C197.65561012 751.87799771 190.8049563 757.13969235 183.69677734 762.07592773 C173.46367465 769.19662577 166.75160921 775.73747132 161.42041016 787.06201172 C162.2110083 786.91578369 163.00160645 786.76955566 163.81616211 786.61889648 C167.45416167 785.94901139 171.09350557 785.28671917 174.73291016 784.62451172 C176.59786133 784.27936523 176.59786133 784.27936523 178.50048828 783.92724609 C191.37163129 781.59625169 203.81942745 780.85180545 216.86914062 780.82177734 C219.38787707 780.81213625 221.90577248 780.78104895 224.42431641 780.74951172 C239.28612685 780.65186144 254.18624057 782.07017271 268.35791016 786.81201172 C269.13948486 787.06805176 269.92105957 787.3240918 270.72631836 787.58789062 C283.06571513 791.81264746 294.10402648 798.28012555 300.29541016 810.12451172 C307.89617199 826.096742 305.27776222 844.73464921 299.77099609 860.97753906 C297.38794132 867.64627677 294.47037452 874.0029087 291.34765625 880.34570312 C285.20576878 892.9173345 282.48090345 904.57089753 281.48291016 918.49951172 C280.34775128 934.0583149 276.27633469 946.56079665 268.56787109 960.03857422 C253.10507339 985.764416 253.10507339 985.764416 247.42041016 1014.49951172 C248.63221012 1018.81654909 249.99937595 1020.20120057 253.42041016 1023.06201172 C255.99274809 1024.07629612 258.33444637 1024.86541386 260.98291016 1025.56201172 C262.41770852 1025.97714148 263.85130224 1026.39645637 265.28369141 1026.81982422 C266.3387085 1027.12968262 266.3387085 1027.12968262 267.41503906 1027.44580078 C274.45778648 1029.60989799 280.79000913 1032.60556152 286.97509766 1036.57763672 C293.34015822 1040.31759792 299.04401454 1041.51063331 306.29541016 1042.43701172 C308.83871626 1042.81815519 311.38032853 1043.21072133 313.92041016 1043.61279297 C314.58958466 1043.71871262 315.25875916 1043.82463226 315.94821167 1043.9337616 C324.82600466 1045.38806093 333.55379534 1047.51919347 342.29541016 1049.62451172 C343.48719879 1049.90944489 343.48719879 1049.90944489 344.70306396 1050.20013428 C349.23172162 1051.28454993 353.75410048 1052.39154689 358.27084351 1053.52456665 C359.71038373 1053.88448747 361.15085112 1054.24071905 362.5921936 1054.59335327 C364.65599284 1055.0992358 366.71616535 1055.61790139 368.77587891 1056.14013672 C370.54161255 1056.58147949 370.54161255 1056.58147949 372.34301758 1057.03173828 C376.81087122 1058.52752109 379.26955077 1060.60375141 382.42041016 1064.06201172 C382.42041016 1064.39201172 382.42041016 1064.72201172 382.42041016 1065.06201172 C145.81041016 1065.06201172 -90.79958984 1065.06201172 -334.57958984 1065.06201172 C-334.90958984 1063.74201172 -335.23958984 1062.42201172 -335.57958984 1061.06201172 C-333.42006096 1057.73856498 -330.48843581 1057.31845876 -326.77099609 1056.51904297 C-324.96562378 1056.12144775 -324.96562378 1056.12144775 -323.1237793 1055.71582031 C-321.79660079 1055.43514138 -320.46936934 1055.15471272 -319.14208984 1054.87451172 C-317.75799122 1054.57429223 -316.37412486 1054.27300023 -314.99047852 1053.97070312 C-312.0465356 1053.32846143 -309.10146043 1052.69175253 -306.15576172 1052.05761719 C-301.59692611 1051.07152493 -297.04869755 1050.04151137 -292.50146484 1049.00341797 C-277.10412816 1045.50068479 -261.74734891 1042.16358031 -246.14331055 1039.69628906 C-245.08200928 1039.52178223 -244.02070801 1039.34727539 -242.92724609 1039.16748047 C-241.55064819 1038.95321411 -241.55064819 1038.95321411 -240.14624023 1038.73461914 C-237.13891195 1037.94652921 -235.06820954 1036.92881009 -232.57958984 1035.06201172 C-231.39414067 1033.01247018 -231.39414067 1033.01247018 -230.80615234 1030.63232422 C-230.5427002 1029.7608374 -230.27924805 1028.88935059 -230.0078125 1027.99145508 C-229.74274902 1027.06598877 -229.47768555 1026.14052246 -229.20458984 1025.18701172 C-221.33527557 999.8731186 -204.11005793 982.53521744 -185.82958984 964.18701172 C-185.3340863 963.68873871 -184.83858276 963.1904657 -184.32806396 962.67709351 C-179.11445748 957.44224441 -173.8621385 952.30055603 -168.24707031 947.49316406 C-166.1121011 945.66077906 -164.07141864 943.73392521 -162.01708984 941.81201172 C-144.26045515 925.86893575 -123.67841227 912.35517302 -99.80541992 909.14306641 C-84.24147839 906.99590792 -75.18664796 899.15888017 -64.89819336 887.77783203 C-61.0424153 883.51830433 -57.07706566 879.65033769 -52.57958984 876.06201172 C-51.58056641 875.26021484 -50.58154297 874.45841797 -49.55224609 873.63232422 C-41.87240776 867.5484736 -34.33057117 861.76629268 -25.06396484 858.35498047 C-24.25531982 858.0568042 -23.4466748 857.75862793 -22.61352539 857.45141602 C-20.99534441 856.86907547 -19.36916486 856.30839448 -17.73510742 855.7722168 C-13.95089039 854.43587077 -12.02059053 853.67623112 -9.63037109 850.34716797 C-8.43002624 846.59441695 -7.74733312 842.8878481 -7.20458984 838.99951172 C-4.06734284 819.62460944 5.42070639 804.17982772 21.20556641 792.51513672 C26.74300092 788.10093056 30.23782083 783.11554502 33.92041016 777.12451172 C34.87741821 775.60869507 34.87741821 775.60869507 35.85375977 774.06225586 C37.72981519 771.07432381 39.57830952 768.07096366 41.42041016 765.06201172 C41.9323291 764.23797852 42.44424805 763.41394531 42.97167969 762.56494141 C50.33137984 750.69739331 56.4737614 738.84300983 59.79541016 725.18701172 C60.04750244 724.15253906 60.04750244 724.15253906 60.3046875 723.09716797 C61.36562998 718.33496992 61.56223507 713.93860687 61.42041016 709.06201172 C51.56216814 706.04342876 42.77259589 705.83503859 32.54541016 706.26708984 C13.41351788 706.70876078 -5.37355658 700.46466634 -23.70458984 695.62451172 C-25.86982514 695.05826191 -28.03518939 694.49250497 -30.20068359 693.92724609 C-35.38192068 692.57202348 -40.55901897 691.20193565 -45.73339844 689.82077026 C-47.57388719 689.3301193 -49.41499469 688.84178092 -51.25683594 688.35623169 C-68.3669459 683.83935167 -68.3669459 683.83935167 -76.32958984 679.87451172 C-77.11269531 679.49214355 -77.89580078 679.10977539 -78.70263672 678.71582031 C-94.71091034 670.65614459 -109.99220859 659.25347011 -116.57958984 642.06201172 C-117.29358434 639.51818208 -117.95569955 637.00889597 -118.45068359 634.41357422 C-122.22540317 626.55066353 -131.39631034 623.57270026 -138.89208984 620.31201172 C-167.24235396 607.58291883 -192.80125703 591.04123857 -216.57958984 571.06201172 C-217.59666016 570.23056641 -218.61373047 569.39912109 -219.66162109 568.54248047 C-233.34893654 557.22587695 -246.69922724 544.65562796 -257.59912109 530.60107422 C-259.47489675 528.19623363 -261.4413135 525.89386637 -263.44458008 523.5949707 C-271.30902258 514.53554329 -279.5413381 504.73469004 -285.14208984 494.09326172 C-286.43303909 491.79708147 -286.43303909 491.79708147 -289.16943359 491.43505859 C-289.96478516 491.31195313 -290.76013672 491.18884766 -291.57958984 491.06201172 C-291.8204834 492.03283691 -292.06137695 493.00366211 -292.30957031 494.00390625 C-294.19931026 501.6014956 -296.12287408 509.18857859 -298.09858704 516.76429749 C-305.3396334 544.54946194 -311.9616055 572.47130094 -318.31396484 600.47216797 C-351.16778151 745.26368092 -351.16778151 745.26368092 -376.57958984 802.06201172 C-377.04187988 803.10711914 -377.50416992 804.15222656 -377.98046875 805.22900391 C-392.51522018 837.9673789 -410.00473949 869.2228124 -434.40771484 895.70263672 C-435.87651797 897.29824299 -437.32408055 898.91362339 -438.75146484 900.54638672 C-449.80195159 913.16431839 -473.67675234 938.48363238 -491.75146484 940.39794922 C-499.91216825 940.48703987 -505.91833334 940.23137683 -512.13427734 934.67138672 C-515.20708441 931.37289326 -516.2620952 928.50693678 -516.57958984 924.06201172 C-511.9910463 920.3345282 -507.36457827 916.85479092 -502.32958984 913.74951172 C-497.93663357 911.00468854 -493.76142025 908.07070336 -489.64208984 904.93701172 C-489.09842773 904.52926514 -488.55476563 904.12151855 -487.99462891 903.70141602 C-484.67103107 901.13624043 -482.07108608 898.43603795 -479.57958984 895.06201172 C-484.2206078 889.00290494 -489.58605453 884.87504896 -495.74169922 880.41308594 C-498.50411123 878.38237551 -501.2175296 876.28939463 -503.93432617 874.19824219 C-506.12231805 872.51472482 -508.3168291 870.84006793 -510.51318359 869.16748047 C-512.97731069 867.29089564 -515.42825189 865.40006485 -517.86474609 863.48779297 C-524.46708501 858.2303123 -524.46708501 858.2303123 -532.57958984 857.06201172 C-537.58870738 859.24780846 -541.12092712 862.35928058 -545.14208984 865.99560547 C-548.19507255 868.58379113 -551.3877416 870.9224616 -554.64208984 873.24951172 C-555.50846069 873.8733374 -555.50846069 873.8733374 -556.39233398 874.50976562 C-563.60113584 879.61672404 -569.40215942 883.54817324 -578.57958984 882.06201172 C-581.57958984 880.49951172 -581.57958984 880.49951172 -584.57958984 878.06201172 C-586.32749924 876.89221521 -588.07766704 875.72578901 -589.82958984 874.56201172 C-593.14113118 872.3543175 -595.10295217 870.80282717 -596.57958984 867.06201172 C-593.21898542 862.17224338 -589.12127647 859.5506219 -584.20458984 856.43701172 C-570.91077313 847.7804485 -559.00548738 838.05083316 -547.57958984 827.06201172 C-547.0882959 826.59263184 -546.59700195 826.12325195 -546.09082031 825.63964844 C-539.3636695 819.18384488 -533.32328773 812.39951059 -527.57958984 805.06201172 C-526.39429688 803.58474609 -526.39429688 803.58474609 -525.18505859 802.07763672 C-514.05825517 788.08039579 -504.94217467 772.83721477 -496.57958984 757.06201172 C-496.0681543 756.09908203 -496.0681543 756.09908203 -495.54638672 755.11669922 C-461.52545901 690.45664576 -444.77342196 617.17821765 -429.07958984 546.35888672 C-428.92824144 545.67596746 -428.77689304 544.99304821 -428.62095833 544.28943443 C-428.15600647 542.19110046 -427.69115095 540.09274516 -427.22631836 537.99438477 C-416.58705845 489.96690915 -405.76351977 441.89524393 -390.57958984 395.06201172 C-390.3206897 394.2616449 -390.06178955 393.46127808 -389.79504395 392.63665771 C-375.76186567 349.37179339 -358.50441264 307.5903342 -334.06787109 269.08154297 C-333.37048828 267.98197266 -332.67310547 266.88240234 -331.95458984 265.74951172 C-331.38482422 264.88712891 -330.81505859 264.02474609 -330.22802734 263.13623047 C-325.8053266 254.88820799 -323.48610101 245.61764071 -320.82958984 236.68701172 C-317.26111217 224.92176765 -313.22944003 213.44172495 -308.57958984 202.06201172 C-308.12447021 200.93520996 -308.12447021 200.93520996 -307.66015625 199.78564453 C-289.68965467 155.77585707 -257.68995239 112.45544763 -220.16162109 83.08544922 C-217.35354512 80.88486925 -214.66216649 78.57238532 -211.95458984 76.24951172 C-198.75452695 65.25795356 -184.24120987 55.96621718 -169.57958984 47.06201172 C-168.91668945 46.65885742 -168.25378906 46.25570312 -167.57080078 45.84033203 C-117.63308136 15.81627008 -57.93592799 1.3927433 0 0 Z M-50.26708984 83.81201172 C-64.25564621 100.09868806 -70.71929747 119.44958724 -69.75 140.86962891 C-68.15583749 161.37905488 -57.21546418 181.0882821 -41.81787109 194.46044922 C-24.46915046 208.03368058 -4.55672598 214.50169732 17.42041016 213.06201172 C36.25208492 210.53653897 52.99892587 202.46074773 66.42041016 189.06201172 C67.46841797 188.03140625 67.46841797 188.03140625 68.53759766 186.97998047 C82.6768724 172.15299781 89.34597245 153.04491027 88.99072266 132.82421875 C88.20591596 113.66696463 81.39709155 96.28594061 68.42041016 82.06201172 C67.90349609 81.45357422 67.38658203 80.84513672 66.85400391 80.21826172 C55.02620186 67.17507149 36.13422896 59.10904175 18.82666016 57.87744141 C-8.65337626 56.55114798 -30.98668935 63.54791732 -50.26708984 83.81201172 Z M-238.95849609 223.58935547 C-253.50559979 240.35175415 -258.03150922 259.79248545 -256.79833984 281.47314453 C-255.43415537 297.61802419 -248.17186959 312.92254504 -237.57958984 325.06201172 C-236.42330078 326.52960938 -236.42330078 326.52960938 -235.24365234 328.02685547 C-223.90400578 341.61655017 -202.58764849 350.05996301 -185.57958984 352.06201172 C-163.13021424 353.65065663 -143.98009621 345.96478116 -126.57958984 332.06201172 C-125.96083984 331.60697266 -125.34208984 331.15193359 -124.70458984 330.68310547 C-111.29235503 320.28241412 -102.79395394 303.20883074 -100.02099609 286.74560547 C-97.34801843 264.43925201 -103.37539481 241.90197131 -117.26416016 224.12280273 C-130.37775985 208.07932189 -149.20732003 199.46249815 -169.57958984 197.06201172 C-197.09382053 195.48707181 -219.78451453 203.21896783 -238.95849609 223.58935547 Z M137.88916016 223.05419922 C123.07944518 241.09768108 118.87768344 263.29669626 120.42041016 286.06201172 C122.65290123 304.61409259 133.72022637 321.88570587 147.60009766 333.89794922 C156.93153768 341.05808464 167.17878965 345.68405519 178.42041016 349.06201172 C179.21189453 349.30822266 180.00337891 349.55443359 180.81884766 349.80810547 C200.66017913 354.85546172 222.26794146 350.28338936 239.64697266 340.16064453 C258.69349055 328.36145255 271.45006635 308.88058781 276.73291016 287.31201172 C280.21015716 266.44852972 274.91752623 246.71915391 262.99462891 229.44873047 C250.08530612 211.62445987 232.22544927 201.44830541 210.67041016 197.74951172 C183.79301413 194.35721902 156.60980939 203.28739605 137.88916016 223.05419922 Z M-5.45458984 245.99951172 C-8.72127154 250.70737652 -9.91755162 253.21813859 -9.07958984 258.93701172 C-7.82689394 264.19833453 -5.85641104 267.7130133 -1.57958984 271.06201172 C3.36909654 274.09094907 7.80659915 275.54352187 13.60791016 274.68701172 C20.1280086 272.93396638 23.9888891 269.50945095 27.35791016 263.74951172 C29.03153691 257.94104239 29.51903467 253.34715071 26.85791016 247.81201172 C22.944752 243.39716662 18.49204652 239.55189302 12.43994141 238.82373047 C5.12813502 238.57784671 -0.52319413 240.41924815 -5.45458984 245.99951172 Z M-67.74365234 289.00732422 C-72.03060994 293.78825224 -73.97514166 297.23149283 -73.85302734 303.87451172 C-73.26754627 308.55836029 -71.34232646 312.44349901 -67.86083984 315.64013672 C-62.76189285 319.39952984 -57.98792145 321.02056888 -51.57958984 320.06201172 C-45.78038057 317.96664525 -40.85432388 315.47244186 -37.57958984 310.06201172 C-35.87975029 304.96249307 -35.39488342 299.04038582 -37.41552734 293.96044922 C-41.0294808 288.45462751 -46.375642 285.2460794 -52.45458984 282.99951172 C-58.29335564 283.11628703 -63.38736745 285.09138581 -67.74365234 289.00732422 Z M60.04541016 290.49951172 C56.39593141 296.25445897 55.56106349 301.29601642 56.42041016 308.06201172 C59.16673124 313.88421241 63.66553729 317.57627065 69.59228516 319.92138672 C75.28933612 321.53227699 79.2621965 320.89507874 84.42041016 318.06201172 C89.1840475 314.9921121 91.47391551 311.63684919 92.92822266 306.14404297 C93.86483772 300.99266013 93.00700071 297.71787472 90.42041016 293.06201172 C87.26407779 288.62608514 84.60502316 285.85668545 79.42041016 284.06201172 C71.69403785 282.89874749 65.49954622 284.90184576 60.04541016 290.49951172 Z M-10.45458984 303.68701172 C-15.97602608 310.64428243 -18.34817592 318.65867274 -17.95849609 327.49560547 C-16.84336171 335.04862911 -12.33285859 340.30983586 -6.57958984 345.06201172 C-0.31496881 349.46995402 5.81192714 350.82558707 13.42041016 350.06201172 C22.31564934 348.0115837 29.27597576 343.66305805 34.42041016 336.06201172 C37.76237228 329.64626961 39.80030172 323.8373668 37.72509766 316.65576172 C34.02169324 306.32357462 28.08710434 301.02014402 18.42041016 296.06201172 C7.60480871 292.45681124 -2.68310254 295.66802482 -10.45458984 303.68701172 Z M-336.57958984 337.06201172 C-341.65119809 343.75638538 -344.71600856 351.66275319 -347.70458984 359.43701172 C-348.1625293 360.61932373 -348.62046875 361.80163574 -349.09228516 363.01977539 C-352.76470165 372.59760054 -356.19811394 382.26293215 -359.50872803 391.97125244 C-360.05283876 393.5642601 -360.60149632 395.15572249 -361.15484619 396.74554443 C-361.93212157 398.98793228 -362.68836424 401.23635646 -363.43896484 403.48779297 C-363.67169098 404.15028549 -363.90441711 404.81277802 -364.14419556 405.49534607 C-365.62485883 410.04657468 -365.96950935 413.46135125 -364.57958984 418.06201172 C-360.80630414 421.96176851 -356.99416005 424.04877402 -352.00146484 426.21826172 C-351.38998596 426.4878772 -350.77850708 426.75749268 -350.14849854 427.03527832 C-348.21278293 427.88684277 -346.27163553 428.72499827 -344.32958984 429.56201172 C-341.78097883 430.67264791 -339.23485564 431.78890714 -336.68896484 432.90576172 C-336.07475677 433.17350906 -335.46054871 433.44125641 -334.82772827 433.71711731 C-330.34359563 435.68473866 -325.97730882 437.8247852 -321.65136719 440.11743164 C-318.61590824 441.50138058 -315.89230489 441.84596509 -312.57958984 442.06201172 C-313.84228103 435.92249794 -315.45582108 429.9859172 -317.29516602 423.99511719 C-325.99753766 395.63898243 -332.02520282 366.64190144 -334.57958984 337.06201172 C-335.23958984 337.06201172 -335.89958984 337.06201172 -336.57958984 337.06201172 Z M-43.70458984 364.31201172 C-47.36939416 369.68705805 -49.4996967 374.50625038 -48.57958984 381.06201172 C-46.32108817 386.00655036 -43.33250228 390.31588453 -38.57958984 393.06201172 C-32.62313063 395.16613879 -27.54607128 395.60452645 -21.62255859 393.24560547 C-17.22249674 390.69643005 -14.6150707 386.94470419 -12.20458984 382.56201172 C-10.65477485 376.36275175 -11.45683026 371.60239163 -14.57958984 366.06201172 C-18.36858092 362.07595727 -21.66049742 359.27824079 -27.32177734 358.85888672 C-28.35560547 358.84341797 -29.38943359 358.82794922 -30.45458984 358.81201172 C-31.48326172 358.78623047 -32.51193359 358.76044922 -33.57177734 358.73388672 C-38.07995671 359.2256881 -40.63736259 361.06435933 -43.70458984 364.31201172 Z M34.48291016 366.12451172 C30.91629648 371.20423422 30.75090076 376.02699742 31.42041016 382.06201172 C34.08221665 387.48800188 38.00852798 391.78328245 43.71337891 393.92138672 C49.83965515 395.47907556 54.88416507 395.26943478 60.42041016 392.06201172 C65.3457519 387.7694762 68.0715997 383.20130582 68.79541016 376.68701172 C68.06343352 369.61123758 64.40094571 365.64546694 59.20166016 361.22607422 C51.0116202 355.87381126 40.47101998 359.22441965 34.48291016 366.12451172 Z M-169.57958984 418.06201172 C-170.13259766 418.60212891 -170.68560547 419.14224609 -171.25537109 419.69873047 C-185.73226372 435.19017622 -191.28181245 455.95214867 -190.88427734 476.55029297 C-190.07484093 496.15404005 -180.3762309 514.85764595 -166.32958984 528.18701172 C-149.41504536 543.091221 -129.36317696 550.18612793 -106.90820312 549.24560547 C-96.27140936 548.40697379 -85.94856594 545.07758388 -76.57958984 540.06201172 C-75.62955078 539.58248047 -74.67951172 539.10294922 -73.70068359 538.60888672 C-57.55752477 529.93746373 -43.84149125 515.39734907 -37.57958984 498.06201172 C-36.99177734 496.43585938 -36.99177734 496.43585938 -36.39208984 494.77685547 C-30.13294736 474.80410565 -32.83938013 454.20220725 -42.30200195 435.79931641 C-45.77534427 429.39163981 -49.88728841 423.64808485 -54.57958984 418.06201172 C-55.11841797 417.40974609 -55.65724609 416.75748047 -56.21240234 416.08544922 C-68.98849171 402.02533077 -89.06430603 394.84316691 -107.57177734 393.84716797 C-131.72246072 393.09910131 -152.36648134 401.15356001 -169.57958984 418.06201172 Z M96.42041016 402.06201172 C95.02048828 402.69042969 95.02048828 402.69042969 93.59228516 403.33154297 C85.63605344 407.27556069 79.64700461 412.85330977 73.42041016 419.06201172 C72.75009766 419.70912109 72.07978516 420.35623047 71.38916016 421.02294922 C57.24768888 435.74293523 52.94416797 456.45323472 53.20556641 476.15966797 C53.82786468 496.13892109 63.18241924 514.31421767 77.42041016 528.06201172 C94.33094967 542.88002404 115.93570984 550.07985166 138.39306641 548.84326172 C158.07380269 547.08430338 175.55643098 539.12583204 189.42041016 525.06201172 C190.04302734 524.44970703 190.66564453 523.83740234 191.30712891 523.20654297 C205.18912176 508.57585836 211.83523353 487.08023637 211.44799805 467.20214844 C210.42903476 444.4094032 199.09513806 427.05520173 182.99072266 411.75341797 C158.77691874 390.8414964 124.77295391 389.24460528 96.42041016 402.06201172 Z M-372.75512695 439.12670898 C-374.79880109 442.4146916 -375.77444197 445.28616681 -376.77099609 449.02685547 C-376.95767349 449.71666504 -377.14435089 450.40647461 -377.33668518 451.1171875 C-377.9518509 453.40797264 -378.54764844 455.70326832 -379.14208984 457.99951172 C-379.56931118 459.61687316 -379.99689076 461.23414002 -380.42480469 462.85131836 C-384.01671734 476.52552751 -387.38253506 490.25764748 -390.70458984 503.99951172 C-390.95032745 505.00899872 -391.19606506 506.01848572 -391.44924927 507.05856323 C-392.14885752 509.94204045 -392.83855676 512.8276962 -393.52490234 515.71435547 C-393.73377579 516.57222656 -393.94264923 517.43009766 -394.15785217 518.31396484 C-396.22431707 526.18821114 -396.22431707 526.18821114 -394.02001953 533.703125 C-391.14142699 536.48553408 -388.12088001 538.13845174 -384.53271484 539.80419922 C-383.84385193 540.13565948 -383.15498901 540.46711975 -382.44525146 540.80862427 C-380.24542045 541.86317349 -378.03771876 542.89997024 -375.82958984 543.93701172 C-374.39287242 544.62472954 -372.95666956 545.31352344 -371.52099609 546.00341797 C-367.94604905 547.7151915 -364.354119 549.38728933 -360.75463867 551.04675293 C-358.52759143 552.08628329 -356.31857991 553.15900577 -354.10888672 554.23486328 C-352.67771498 554.91001177 -351.24609113 555.5842029 -349.81396484 556.25732422 C-349.1594635 556.58497772 -348.50496216 556.91263123 -347.83062744 557.25021362 C-344.75372609 558.66448307 -343.07618388 559.20886477 -339.78417969 558.23535156 C-336.75971027 555.25375391 -336.01324279 552.10570847 -335.07177734 548.09326172 C-334.86427353 547.28130341 -334.65676971 546.46934509 -334.44297791 545.63278198 C-333.76125489 542.94689177 -333.10780446 540.25496439 -332.45458984 537.56201172 C-331.98593782 535.68867463 -331.51545128 533.81579561 -331.04321289 531.94335938 C-330.05330361 528.01008652 -329.07371744 524.07442065 -328.09960938 520.13720703 C-326.59230809 514.0745741 -325.01232852 508.032315 -323.41943359 501.99169922 C-322.6563766 499.08117924 -321.89430941 496.17040209 -321.13262939 493.25952148 C-320.6417536 491.38858601 -320.14841396 489.51829512 -319.65252686 487.64868164 C-318.95868275 485.02578032 -318.27747343 482.39989329 -317.59912109 479.77294922 C-317.39343002 479.00691376 -317.18773895 478.2408783 -316.97581482 477.45162964 C-315.71625341 472.51088206 -314.9861973 468.15851733 -315.57958984 463.06201172 C-318.89670908 458.54657817 -323.14342332 456.4953629 -328.11865234 454.24951172 C-328.84015472 453.91330811 -329.5616571 453.57710449 -330.30502319 453.23071289 C-332.60026089 452.16414814 -334.90215081 451.11292552 -337.20458984 450.06201172 C-338.72718716 449.35727964 -340.24932712 448.65155855 -341.77099609 447.94482422 C-344.70428917 446.58442413 -347.64211554 445.2347195 -350.58447266 443.89404297 C-353.05035285 442.76937351 -355.49787356 441.62140623 -357.94189453 440.44873047 C-358.90256836 439.99111328 -359.86324219 439.53349609 -360.85302734 439.06201172 C-361.6591748 438.67013672 -362.46532227 438.27826172 -363.29589844 437.87451172 C-367.36356747 436.4273017 -369.50289348 436.04017117 -372.75512695 439.12670898 Z M-400.91674805 553.64624023 C-402.80042546 556.38284102 -403.48767312 558.46990606 -404.18505859 561.71435547 C-404.44182373 562.86532715 -404.69858887 564.01629883 -404.96313477 565.20214844 C-405.36109253 567.08184326 -405.36109253 567.08184326 -405.76708984 568.99951172 C-406.21012133 571.00690719 -406.65886388 573.01297495 -407.10786438 575.01904297 C-407.42612543 576.44218407 -407.74272802 577.86569694 -408.05778503 579.28955078 C-409.82115447 587.23532668 -411.74646725 595.14057743 -413.68179321 603.04592896 C-414.25063626 605.36979473 -414.81715719 607.6942147 -415.38305664 610.01879883 C-415.65325371 611.12598518 -415.65325371 611.12598518 -415.9289093 612.25553894 C-416.2845814 613.71483572 -416.63884069 615.17447762 -416.99162292 616.63447571 C-417.87002422 620.25056148 -418.78571187 623.85010373 -419.7734375 627.43798828 C-419.96436478 628.14839264 -420.15529205 628.858797 -420.352005 629.59072876 C-420.87558942 631.53011115 -421.41417595 633.46542587 -421.95385742 635.40039062 C-422.69797784 639.75478703 -422.4338717 642.73619504 -421.57958984 647.06201172 C-418.06989959 651.72373771 -413.43712181 654.00314626 -408.32958984 656.56201172 C-406.64320129 657.42492051 -404.95701438 658.28822345 -403.27099609 659.15185547 C-402.36365723 659.61317871 -401.45631836 660.07450195 -400.52148438 660.54980469 C-397.32554091 662.19259919 -394.15300286 663.87563261 -390.98193359 665.56591797 C-389.3108252 666.45150391 -389.3108252 666.45150391 -387.60595703 667.35498047 C-385.4123347 668.51755539 -383.22147998 669.68537041 -381.03369141 670.85888672 C-379.51533691 671.65746094 -379.51533691 671.65746094 -377.96630859 672.47216797 C-377.07129639 672.9479126 -376.17628418 673.42365723 -375.25415039 673.91381836 C-372.3556266 675.15815952 -369.69935283 675.66592851 -366.57958984 676.06201172 C-364.29592723 672.55779142 -362.96043222 669.45576144 -361.95849609 665.40185547 C-361.66845703 664.24024902 -361.37841797 663.07864258 -361.07958984 661.88183594 C-360.77021484 660.60066895 -360.46083984 659.31950195 -360.14208984 657.99951172 C-359.80767252 656.63503767 -359.47302945 655.27061894 -359.13818359 653.90625 C-357.93198979 648.96290751 -356.75429655 644.01291744 -355.57958984 639.06201172 C-355.33198914 638.01986511 -355.08438843 636.97771851 -354.82928467 635.9039917 C-353.17427448 628.92951513 -351.53286514 621.95197016 -349.9045105 614.97122192 C-349.35550772 612.61912758 -348.80467144 610.26746043 -348.25198364 607.91622925 C-347.46888251 604.5783598 -346.69484733 601.23851493 -345.92333984 597.89794922 C-345.56767189 596.39040321 -345.56767189 596.39040321 -345.20481873 594.85240173 C-343.05505447 586.24285368 -343.05505447 586.24285368 -345.17333984 577.90576172 C-347.95169274 574.62225375 -350.18044479 573.35900901 -354.07958984 571.56201172 C-355.49590639 570.89606382 -356.91118364 570.22790322 -358.32568359 569.55810547 C-359.13505371 569.17895996 -359.94442383 568.79981445 -360.77832031 568.40917969 C-364.08587226 566.81853374 -367.35082162 565.14978269 -370.61474609 563.47216797 C-372.4962953 562.51034259 -374.37824376 561.549302 -376.26025391 560.58837891 C-377.5070029 559.94980015 -378.75230805 559.30839394 -379.99609375 558.6640625 C-381.77030412 557.74676102 -383.55182028 556.84363372 -385.33349609 555.94091797 C-386.36804932 555.41054932 -387.40260254 554.88018066 -388.46850586 554.33374023 C-394.79880658 551.65981831 -394.79880658 551.65981831 -400.91674805 553.64624023 Z M-427.57958984 666.06201172 C-431.02114308 670.44478067 -432.42805226 676.03035342 -434.16943359 681.24951172 C-434.87303405 683.31896272 -435.57698656 685.38829406 -436.28125 687.45751953 C-436.64663879 688.53731079 -437.01202759 689.61710205 -437.38848877 690.72961426 C-443.12521405 707.66832643 -448.95763543 724.46217098 -456.26293945 740.79638672 C-456.94948608 742.35873047 -456.94948608 742.35873047 -457.64990234 743.95263672 C-458.04967285 744.82952148 -458.44944336 745.70640625 -458.86132812 746.60986328 C-459.75136371 749.64844839 -459.69109614 751.09217858 -458.57958984 754.06201172 C-455.38271808 757.82958825 -451.94468718 760.26024105 -447.67724609 762.69873047 C-446.54544922 763.35405762 -445.41365234 764.00938477 -444.24755859 764.68457031 C-443.36269775 765.19102081 -443.36269775 765.19102081 -442.45996094 765.70770264 C-432.09413008 771.64828707 -422.11804763 777.84623034 -412.57958984 785.06201172 C-409.08393648 787.3924473 -407.69301695 787.64964416 -403.57958984 787.06201172 C-400.60804063 783.87207069 -398.80171726 780.74646505 -397.20458984 776.71435547 C-396.78258301 775.6518457 -396.36057617 774.58933594 -395.92578125 773.49462891 C-395.48153809 772.34124023 -395.03729492 771.18785156 -394.57958984 769.99951172 C-394.10827637 768.78811523 -393.63696289 767.57671875 -393.15136719 766.32861328 C-387.30540695 751.14393312 -382.24182546 735.67206607 -377.26574707 720.18432617 C-376.5592361 717.99905668 -375.83885229 715.81865229 -375.11767578 713.63818359 C-374.65399539 712.21190214 -374.19076234 710.78547517 -373.72802734 709.35888672 C-373.51119293 708.71252258 -373.29435852 708.06615845 -373.07095337 707.40020752 C-371.82357421 703.50595999 -371.24164214 700.14576147 -371.57958984 696.06201172 C-374.53337066 690.74198686 -379.35121314 688.85067426 -384.64208984 686.37451172 C-386.44379403 685.50402357 -388.24455227 684.63157523 -390.04443359 683.75732422 C-390.96208496 683.31420898 -391.87973633 682.87109375 -392.82519531 682.41455078 C-397.16620529 680.28290787 -401.43490771 678.01979975 -405.70458984 675.74951172 C-407.2694936 674.92230956 -408.8345896 674.09547095 -410.39990234 673.26904297 C-411.11823242 672.8895752 -411.8365625 672.51010742 -412.57666016 672.11914062 C-415.23880651 670.71408288 -417.90287678 669.31416119 -420.57958984 667.93701172 C-421.30146484 667.56318359 -422.02333984 667.18935547 -422.76708984 666.80419922 C-424.71587133 665.87253999 -424.71587133 665.87253999 -427.57958984 666.06201172 Z M-469.95068359 771.98779297 C-473.32916933 775.58571003 -475.38759855 779.89989978 -477.64208984 784.24951172 C-486.96374145 801.66126361 -498.318692 817.74218372 -510.95458984 832.91357422 C-514.49819854 837.16853293 -514.49819854 837.16853293 -516.32958984 842.31201172 C-514.58789017 848.69824385 -507.41643387 852.49719009 -502.26708984 856.12451172 C-495.44644551 860.98144691 -488.70416273 865.92077445 -482.05883789 871.01538086 C-474.26904167 877.41415847 -474.26904167 877.41415847 -465.01708984 880.24951172 C-456.28878214 877.23427815 -451.04001768 869.12381503 -445.57958984 862.06201172 C-445.16193359 861.52463379 -444.74427734 860.98725586 -444.31396484 860.43359375 C-435.88255348 849.51021781 -428.67124763 837.88535897 -421.57958984 826.06201172 C-421.13856934 825.33401367 -420.69754883 824.60601563 -420.24316406 823.85595703 C-419.09322504 821.95232634 -417.95784811 820.04105203 -416.82958984 818.12451172 C-416.21599609 817.08423828 -415.60240234 816.04396484 -414.97021484 814.97216797 C-413.47538956 811.84395214 -412.70890307 809.53037721 -412.57958984 806.06201172 C-414.2606794 802.23627635 -416.3323953 800.17416091 -419.76708984 797.87451172 C-420.65912109 797.27638672 -421.55115234 796.67826172 -422.47021484 796.06201172 C-427.32588848 792.93876435 -432.21322815 789.86966831 -437.12255859 786.83154297 C-440.32497944 784.84799166 -443.512571 782.84256083 -446.69287109 780.82373047 C-447.5476001 780.28127686 -448.4023291 779.73882324 -449.28295898 779.17993164 C-450.95095722 778.12022267 -452.61814391 777.05923498 -454.28442383 775.99682617 C-455.04698486 775.5130249 -455.8095459 775.02922363 -456.59521484 774.53076172 C-457.26842773 774.10214844 -457.94164062 773.67353516 -458.63525391 773.23193359 C-464.23701277 769.60880259 -464.23701277 769.60880259 -469.95068359 771.98779297 Z M83.17041016 894.24951172 C64.88815843 916.71830873 44.40277535 931.41302816 15.70336914 937.23852539 C8.96710642 938.66612392 4.2853652 941.11066176 -0.70458984 945.93701172 C-12.32277225 955.8174318 -27.11973942 957.85003245 -41.57958984 961.06201172 C-44.54265597 961.73085082 -47.49997767 962.41938358 -50.45458984 963.12451172 C-51.58638672 963.38361328 -52.71818359 963.64271484 -53.88427734 963.90966797 C-57.99222816 965.19068857 -61.72098533 966.92209498 -65.61621094 968.7355957 C-81.15458049 975.69060985 -97.3728761 979.70174246 -114.12597656 982.32421875 C-131.93907739 985.14215133 -154.89169925 989.14482426 -166.45458984 1004.56201172 C-168.822618 1011.92921042 -168.68878516 1020.91086249 -165.57958984 1028.06201172 C-163.16735618 1030.52501057 -161.97865548 1031.04615899 -158.49438477 1031.18457031 C-157.29918213 1031.06936035 -156.10397949 1030.95415039 -154.87255859 1030.83544922 C-153.88088936 1030.74824112 -153.88088936 1030.74824112 -152.8691864 1030.65927124 C-151.46911772 1030.53513472 -150.06964952 1030.40405437 -148.6708374 1030.26647949 C-145.38954109 1029.94565695 -142.10374576 1029.68286124 -138.81787109 1029.41357422 C-138.1309317 1029.35617569 -137.44399231 1029.29877716 -136.73623657 1029.23963928 C-49.84298619 1022.03663172 38.38419208 1021.39810164 125.42041016 1026.06201172 C127.29343502 1026.159441 129.16648211 1026.25644394 131.03955078 1026.35302734 C134.67210582 1026.54063144 138.30459589 1026.72939696 141.93701172 1026.91967773 C159.23433837 1027.88417709 159.23433837 1027.88417709 176.54541016 1028.49951172 C177.30934082 1028.53383301 178.07327148 1028.5681543 178.86035156 1028.60351562 C182.63436895 1028.63470585 184.24048239 1028.20630525 187.22119141 1025.81591797 C197.52632356 1012.91162283 200.71409921 999.2543645 199.42041016 983.06201172 C199.09802374 980.72407556 198.74546803 978.39003177 198.35791016 976.06201172 C195.98352166 961.16656735 198.68095958 947.37989725 204.24072266 933.46044922 C209.04570831 921.33914019 211.74195688 911.90708339 207.42041016 899.06201172 C207.15559949 896.47821624 207.04716932 893.92656695 206.95947266 891.33154297 C206.57919894 888.9584306 206.57919894 888.9584306 204.81884766 887.19873047 C201.44230761 885.59844846 198.92367978 886.27451037 195.42041016 887.06201172 C194.54562012 887.24248047 193.67083008 887.42294922 192.76953125 887.60888672 C188.67008729 888.46114493 184.57877553 889.34923596 180.48876953 890.24560547 C154.89303672 895.71768497 128.80992964 894.14848611 104.00317383 886.04394531 C93.02698734 882.48137083 90.29243179 885.32060682 83.17041016 894.24951172 Z "/>
    </mask>
  </defs>
  <rect x="-150" y="-110" width="1310" height="1310" fill="#141414"/>
  <rect x="-150" y="-110" width="1310" height="1310" fill="url(#grad)" mask="url(#logo-mask)"/>
</svg>